<svg width="800" height="450" viewBox="0 0 800 450" xmlns="http://www.w3.org/2000/svg" role="img" aria-label="Illustration of an artificial intelligence neural network">
  <defs>
    <radialGradient id="bg-ai-explainer" cx="32%" cy="30%" r="95%">
      <stop offset="0%" stop-color="#3d4f9c"/>
      <stop offset="55%" stop-color="#2c3a75"/>
      <stop offset="100%" stop-color="#10141f"/>
    </radialGradient>
    <linearGradient id="sheen-ai-explainer" x1="0" y1="0" x2="1" y2="1" gradientTransform="rotate(138 0.5 0.5)">
      <stop offset="0%" stop-color="#faf8f4" stop-opacity="0.10"/>
      <stop offset="45%" stop-color="#faf8f4" stop-opacity="0"/>
    </linearGradient>
    <filter id="grain-ai-explainer">
      <feTurbulence type="fractalNoise" baseFrequency="0.85" numOctaves="2" stitchTiles="stitch" result="noise"/>
      <feColorMatrix in="noise" type="matrix" values="0 0 0 0 1  0 0 0 0 1  0 0 0 0 1  0 0 0 0.03 0"/>
    </filter>
    <radialGradient id="vig-ai-explainer" cx="50%" cy="46%" r="72%">
      <stop offset="60%" stop-color="#000" stop-opacity="0"/>
      <stop offset="100%" stop-color="#000" stop-opacity="0.38"/>
    </radialGradient>
  </defs>
  <rect width="800" height="450" fill="url(#bg-ai-explainer)"/>
  <rect width="800" height="450" fill="url(#sheen-ai-explainer)"/>
  <rect width="800" height="450" filter="url(#grain-ai-explainer)"/>
  <g transform="translate(240,60) scale(1.7)" fill="none" stroke="#faf8f4" stroke-width="4.5" stroke-linecap="round" stroke-linejoin="round" opacity="0.95">
    
<circle cx="150" cy="110" r="16"/>
<circle cx="80" cy="60" r="9"/><circle cx="220" cy="60" r="9"/>
<circle cx="80" cy="160" r="9"/><circle cx="220" cy="160" r="9"/>
<circle cx="150" cy="30" r="7"/><circle cx="150" cy="190" r="7"/>
<path d="M150 110 L80 60 M150 110 L220 60 M150 110 L80 160 M150 110 L220 160 M150 110 L150 30 M150 110 L150 190" stroke-width="2.5"/>
<circle cx="150" cy="110" r="30" fill="none" stroke-width="2" opacity="0.5"/>

  </g>
  <rect width="800" height="450" fill="url(#vig-ai-explainer)"/>
  <text x="40" y="404" font-family="-apple-system,Helvetica,Arial,sans-serif" font-size="11.5" letter-spacing="1.8" fill="#faf8f4" opacity="0.7">ORIGINAL EDITORIAL ILLUSTRATION / DAILYSCOPEPOST</text>
  <text x="40" y="52" font-family="Georgia, serif" font-size="19" fill="#faf8f4" opacity="0.92">DailyScopePost</text>
</svg>